<svg xmlns="http://www.w3.org/2000/svg" id="Layer_2" data-name="Layer 2" viewBox="0 0 116.64 54.21"><defs><style>      .cls-1 {        fill: #0d1e40;      }      .cls-2 {        fill: #8bc25f;      }    </style></defs><g id="Layer_1-2" data-name="Layer 1"><g><path class="cls-1" d="M17.08,9.26v35.58c0,2.72.12,4.39.36,5.04.31.89.75,1.53,1.33,1.91.8.55,1.84.83,3.15.83h1.5v1.43H0v-1.43h1.39c.71,0,1.34-.08,1.88-.26.14-.03.27-.08.38-.13.06-.01.12-.04.17-.06.3-.11.57-.26.83-.43.17-.11.32-.24.47-.42.27-.27.49-.61.67-1.03.04-.09.07-.17.11-.26.03-.06.06-.14.08-.2.24-.65.37-2.32.37-5.04V9.21c0-1.2-.02-2.21-.07-3.02-.06-1.06-.16-1.77-.3-2.17-.12-.32-.28-.63-.51-.91-.24-.33-.57-.64-.97-.91-.74-.52-1.74-.78-3-.78H0V0h23.41v1.48h-1.5c-1.26,0-2.26.26-3,.78-.36.26-.66.52-.89.8-.27.32-.46.65-.58,1.01-.14.4-.24,1.15-.3,2.25-.04.8-.06,1.79-.06,2.95Z"></path><polygon class="cls-2" points="86.79 .11 61.81 54 53.2 37.54 71.87 .11 86.79 .11"></polygon><polygon class="cls-2" points="116.64 .11 91.57 54.21 82.86 37.54 101.52 .11 116.64 .11"></polygon><path class="cls-1" d="M45.03.11v18.38c-1.87-3.36-4.45-6.98-7.61-10.51-2.76-3.09-5.63-5.76-8.41-7.87h16.02Z"></path><path class="cls-1" d="M35.94,13.94v27.23c0-7.55-6.97-13.68-15.57-13.68,3.22,0,6.21-.86,8.69-2.33,4.1-2.44,6.82-6.55,6.88-11.22Z"></path></g></g></svg>